<?xml version="1.0" standalone="no"?>
<!DOCTYPE svg PUBLIC "-//W3C//DTD SVG 20010904//EN"
 "http://www.w3.org/TR/2001/REC-SVG-20010904/DTD/svg10.dtd">
<svg version="1.0" xmlns="http://www.w3.org/2000/svg"
 width="160.000000pt" height="160.000000pt" viewBox="0 0 160.000000 160.000000"
 preserveAspectRatio="xMidYMid meet">
<metadata>
Created by potrace 1.11, written by Peter Selinger 2001-2013
</metadata>
<g transform="translate(0.000000,160.000000) scale(0.100000,-0.100000)"
fill="#000000" stroke="none">
<path d="M705 1520 c-93 -15 -191 -68 -252 -138 -77 -88 -87 -130 -79 -311 3
-80 8 -159 11 -176 5 -27 3 -26 -14 10 -15 31 -20 35 -20 18 -1 -23 23 -147
34 -176 10 -25 70 -51 100 -43 22 6 24 9 15 27 -17 32 -40 178 -40 257 0 55 6
87 25 132 14 33 25 67 25 75 0 11 6 15 18 11 159 -47 295 -66 476 -66 l142 0
14 -42 c19 -55 11 -282 -12 -345 -13 -36 -13 -43 -1 -47 23 -9 53 -7 53 4 0 6
8 10 19 10 20 0 35 29 50 100 17 79 17 121 -1 134 -14 10 -15 19 -7 57 6 24 9
89 7 144 -5 114 -31 184 -94 249 -90 93 -292 143 -469 116z m551 -631 l-15
-34 5 30 c3 17 9 39 12 50 5 16 7 17 9 4 2 -9 -3 -32 -11 -50z"/>
<path d="M591 1076 c-49 -12 -73 -38 -54 -57 9 -9 23 -9 57 0 25 6 58 11 75
11 35 0 49 17 30 35 -22 20 -60 24 -108 11z"/>
<path d="M960 1081 c-15 -4 -26 -15 -28 -29 -3 -19 1 -22 33 -22 20 0 57 -5
82 -11 47 -12 68 -2 56 27 -9 25 -100 47 -143 35z"/>
<path d="M585 985 c-20 -8 -43 -19 -49 -25 -6 -7 3 -5 21 4 18 9 40 16 50 15
14 0 15 -2 3 -6 -75 -27 -60 -133 18 -133 66 0 89 99 30 128 -19 9 -20 11 -5
11 10 1 29 -10 42 -24 14 -13 25 -20 25 -16 0 14 -36 41 -67 50 -19 6 -43 4
-68 -4z m35 -39 c0 -8 -4 -17 -9 -21 -12 -7 -24 12 -16 25 9 15 25 12 25 -4z
m50 -81 c-7 -8 -22 -15 -34 -15 -18 0 -17 2 9 19 34 21 44 19 25 -4z"/>
<path d="M937 962 c-15 -15 -27 -32 -27 -36 0 -4 12 6 26 23 15 18 35 31 47
30 l22 0 -22 -9 c-44 -18 -56 -77 -22 -111 44 -44 129 3 114 64 -7 27 -62 67
-94 67 -9 0 -29 -13 -44 -28z m68 -12 c3 -6 -1 -13 -10 -16 -19 -8 -30 0 -20
15 8 14 22 14 30 1z m45 -85 c-7 -8 -22 -15 -34 -14 l-21 0 21 9 c12 5 25 14
29 20 4 6 9 9 12 6 3 -3 0 -12 -7 -21z"/>
<path d="M1047 979 c17 -5 41 -21 52 -35 12 -15 21 -22 21 -16 0 18 -60 62
-83 61 -16 -1 -14 -3 10 -10z"/>
<path d="M515 929 c-4 -6 -5 -12 -2 -15 2 -3 7 2 10 11 7 17 1 20 -8 4z"/>
<path d="M740 725 c0 -26 0 -26 78 -23 69 3 77 5 77 23 0 20 -3 21 -57 5 -17
-5 -36 -3 -53 6 -38 20 -45 18 -45 -11z"/>
<path d="M251 574 c0 -49 4 -131 7 -182 7 -89 6 -94 -16 -115 -35 -33 -68 -93
-91 -171 -37 -120 -121 -106 664 -106 656 0 685 1 685 18 0 54 -58 193 -103
248 l-24 29 12 160 c6 88 9 170 7 183 -5 25 -20 29 -28 8 -3 -8 -12 -12 -20
-9 -12 4 -13 0 -4 -22 9 -22 7 -31 -7 -47 -15 -16 -15 -18 -1 -13 12 5 16 2
13 -12 -2 -10 -4 -22 -4 -26 -1 -5 -5 -6 -10 -3 -4 3 -6 -6 -3 -19 2 -14 9
-25 14 -25 5 0 6 -5 3 -10 -4 -6 -9 -8 -13 -6 -4 2 -12 -2 -19 -9 -9 -10 -8
-14 8 -18 18 -5 19 -8 8 -28 -9 -18 -9 -24 0 -27 8 -3 5 -9 -8 -19 -12 -8 -21
-20 -21 -26 0 -8 3 -8 9 2 6 9 11 10 15 2 4 -6 1 -14 -7 -17 -9 -3 -13 -13 -9
-26 3 -12 1 -19 -4 -16 -5 4 -9 -9 -9 -27 0 -18 3 -31 8 -28 4 2 7 -1 7 -6 0
-6 -4 -11 -10 -11 -5 0 -10 -9 -10 -21 0 -11 4 -18 8 -15 5 3 9 -1 9 -8 0 -8
-8 -11 -21 -8 -20 5 -20 4 -5 -14 13 -16 13 -24 3 -54 -9 -24 -13 -29 -14 -15
-2 17 -3 16 -9 -5 -6 -21 -15 -26 -56 -32 -57 -7 -785 -8 -857 -1 -44 5 -47 7
-37 25 7 14 7 23 -1 33 -7 8 -14 41 -17 74 -4 38 -10 58 -16 54 -7 -4 -7 2 -2
18 7 23 8 100 0 136 -1 11 -6 79 -10 153 -4 74 -9 137 -11 139 -2 2 -4 -36 -3
-85z m1116 -376 c-3 -8 -6 -5 -6 6 -1 11 2 17 5 13 3 -3 4 -12 1 -19z"/>
<path d="M1305 410 c-3 -6 1 -7 9 -4 18 7 21 14 7 14 -6 0 -13 -4 -16 -10z"/>
<path d="M1265 120 c3 -5 11 -10 16 -10 6 0 7 5 4 10 -3 6 -11 10 -16 10 -6 0
-7 -4 -4 -10z"/>
</g>
</svg>
